<svg width="294" height="148" viewBox="0 0 294 148" fill="none" xmlns="http://www.w3.org/2000/svg">
<path d="M4.36064 9.44447L30.9242 65.8078H34.9419L61.5092 9.44447V65.8078H65.1602V0.843567H61.5092L32.9331 61.781L4.36064 0.843567H0.709595V65.8078H4.36064V9.44447Z" fill="white"/>
<path d="M130.25 62.1447H89.1687V35.1535H127.508V31.4941H89.1687V4.50289H130.25V0.843567H85.5177V65.8078H130.25V62.1447Z" fill="white"/>
<path d="M182.285 63.2432C186.239 61.5373 189.681 59.2164 192.599 56.2882C195.52 53.36 197.832 49.9294 199.538 45.9964C201.24 42.0634 202.093 37.8379 202.093 33.3238C202.093 28.8096 201.24 24.6629 199.538 20.6961C197.832 16.7331 195.52 13.2837 192.599 10.3555C189.677 7.42731 186.239 5.11024 182.285 3.40056C178.328 1.69462 174.127 0.839783 169.686 0.839783H146.407V65.804H169.686C174.127 65.804 178.328 64.9491 182.285 63.2432ZM150.058 4.50285H169.686C173.64 4.50285 177.37 5.26771 180.871 6.78993C184.369 8.3159 187.414 10.3743 189.999 12.965C192.584 15.5596 194.641 18.6077 196.16 22.1133C197.679 25.6227 198.442 29.357 198.442 33.3238C198.442 37.2905 197.683 41.0248 196.16 44.5304C194.638 48.0398 192.584 51.103 189.999 53.7275C187.41 56.352 184.369 58.4103 180.871 59.9026C177.37 61.3985 173.644 62.1447 169.686 62.1447H150.058V4.50285Z" fill="white"/>
<path d="M219.712 0.843567H216.061V65.8078H219.712V0.843567Z" fill="white"/>
<path d="M280.691 45.8615L289.363 65.8078H293.38L265.264 0.843567H260.517L232.401 65.8078H236.419L245 45.8615H280.695H280.691ZM262.893 4.6866L279.143 42.2021H246.642L262.893 4.6866Z" fill="white"/>
<path d="M33.9018 137.689L6.24214 78.6979H0.245605V146.534H6.76586V95.1423L30.9914 146.534H36.8196L61.0452 95.1423V146.534H67.5654V78.6979H61.5689L33.9018 137.689Z" fill="white"/>
<path d="M140.403 87.5837C137.22 84.3893 133.441 81.8397 129.184 80.0026C120.64 76.3282 110.226 76.3282 101.667 80.0026C97.4098 81.8397 93.6315 84.3893 90.4481 87.5837C87.2609 90.7781 84.7134 94.5611 82.8879 98.8278C81.0549 103.102 80.1234 107.74 80.1234 112.614C80.1234 117.488 81.0549 122.13 82.8879 126.404C84.7134 130.671 87.2609 134.454 90.4481 137.648C93.6315 140.846 97.4098 143.392 101.667 145.229C105.943 147.066 110.574 148 115.426 148C120.277 148 124.909 147.07 129.181 145.229C133.438 143.392 137.216 140.846 140.399 137.648C143.586 134.457 146.13 130.671 147.963 126.404C149.796 122.119 150.728 117.481 150.728 112.614C150.728 107.747 149.8 103.11 147.963 98.8278C146.13 94.5611 143.586 90.7743 140.399 87.5837H140.403ZM144.207 112.614C144.207 116.603 143.452 120.383 141.955 123.843C140.452 127.323 138.368 130.404 135.772 133.006C133.18 135.605 130.105 137.689 126.629 139.2C119.731 142.196 111.12 142.196 104.218 139.2C100.75 137.693 97.6754 135.608 95.0755 133.006C92.4794 130.401 90.3995 127.319 88.8956 123.843C87.3993 120.379 86.6399 116.603 86.6399 112.61C86.6399 108.617 87.3993 104.842 88.8956 101.381C90.4032 97.9017 92.4794 94.8198 95.0755 92.2178C97.6754 89.6158 100.75 87.5312 104.218 86.0239C107.675 84.5242 111.442 83.7631 115.426 83.7631C119.41 83.7631 123.177 84.5242 126.629 86.0239C130.101 87.5349 133.176 89.6195 135.772 92.2178C138.364 94.8161 140.444 97.898 141.955 101.381C143.452 104.842 144.207 108.621 144.207 112.61V112.614Z" fill="white"/>
<path d="M218.912 87.5837C215.728 84.3893 211.95 81.8397 207.693 80.0026C199.145 76.3245 188.727 76.3245 180.175 80.0026C175.918 81.8397 172.14 84.3893 168.957 87.5837C165.77 90.7781 163.226 94.5611 161.397 98.8278C159.564 103.102 158.632 107.74 158.632 112.614C158.632 117.488 159.564 122.13 161.397 126.404C163.226 130.671 165.77 134.454 168.957 137.648C172.14 140.846 175.918 143.392 180.175 145.229C184.451 147.066 189.079 148 193.934 148C198.79 148 203.417 147.07 207.689 145.229C211.946 143.392 215.725 140.846 218.908 137.648C222.095 134.454 224.643 130.671 226.472 126.404C228.305 122.13 229.236 117.488 229.236 112.614C229.236 107.74 228.309 103.102 226.472 98.8278C224.643 94.5611 222.099 90.7818 218.908 87.5837H218.912ZM222.716 112.614C222.716 116.603 221.96 120.383 220.464 123.843C218.96 127.323 216.877 130.404 214.281 133.006C211.688 135.608 208.613 137.689 205.138 139.2C198.247 142.196 189.629 142.196 182.727 139.2C179.259 137.693 176.184 135.608 173.584 133.006C170.988 130.401 168.908 127.319 167.404 123.843C165.908 120.379 165.149 116.603 165.149 112.61C165.149 108.617 165.908 104.842 167.404 101.381C168.912 97.9017 170.988 94.8198 173.584 92.2178C176.184 89.6158 179.259 87.5312 182.727 86.0239C186.183 84.5242 189.95 83.7631 193.934 83.7631C197.918 83.7631 201.685 84.5242 205.138 86.0239C208.61 87.5349 211.684 89.6158 214.281 92.2178C216.873 94.8161 218.953 97.898 220.464 101.381C221.96 104.842 222.716 108.621 222.716 112.61V112.614Z" fill="white"/>
<path d="M251.846 79.6614C249.624 80.6437 247.649 81.9935 245.98 83.6657C244.308 85.3378 242.965 87.3137 241.985 89.5446C240.998 91.7904 240.496 94.235 240.496 96.8032C240.496 100.095 241.289 103.14 242.853 105.847C243.964 107.774 245.352 109.446 246.998 110.841C244.379 112.187 242.153 114.095 240.362 116.536C238.027 119.704 236.845 123.375 236.845 127.454C236.845 130.022 237.35 132.463 238.334 134.712C239.31 136.94 240.653 138.915 242.322 140.595C243.998 142.275 245.973 143.61 248.195 144.558C250.424 145.514 252.856 146.002 255.411 146.002H292.662V78.1617H259.092C256.529 78.1617 254.094 78.6641 251.85 79.6577L251.846 79.6614ZM250.518 105.307C249.437 104.223 248.569 102.941 247.944 101.494C247.327 100.069 247.016 98.4904 247.016 96.8032C247.016 95.116 247.331 93.5226 247.948 92.0641C248.576 90.5944 249.441 89.2971 250.522 88.2136C251.603 87.13 252.897 86.2639 254.36 85.6378C255.822 85.0154 257.412 84.7005 259.096 84.7005H286.142V108.816H259.096C257.409 108.816 255.815 108.501 254.36 107.879C252.897 107.256 251.603 106.39 250.522 105.307H250.518ZM286.138 115.355V139.47H255.347C253.664 139.47 252.07 139.155 250.615 138.533C249.149 137.911 247.862 137.041 246.777 135.953C245.692 134.874 244.828 133.591 244.2 132.144C243.582 130.716 243.268 129.137 243.268 127.458C243.268 125.778 243.582 124.177 244.203 122.715C244.832 121.245 245.696 119.951 246.777 118.864C247.858 117.781 249.152 116.914 250.615 116.288C252.074 115.666 253.664 115.351 255.347 115.351H286.138V115.355Z" fill="white"/>
</svg>
