<?xml version="1.0" encoding="utf-8"?>
<!-- Generator: Adobe Illustrator 27.2.0, SVG Export Plug-In . SVG Version: 6.00 Build 0)  -->
<svg version="1.1" id="Capa_1" xmlns="http://www.w3.org/2000/svg" xmlns:xlink="http://www.w3.org/1999/xlink" x="0px" y="0px"
	 viewBox="0 0 371 135" style="enable-background:new 0 0 371 135;" xml:space="preserve">
<g>
	<path d="M14.5,117H118V13.3H14.5V117z M16.6,15.4h99.3V115H16.6V15.4z"/>
	<path d="M87.2,63.5L87.2,63.5c5.2,0,10.1-2.1,13.8-5.8c3.7-3.8,5.7-8.7,5.7-13.9s-2-10.1-5.7-13.9c-3.7-3.7-8.6-5.8-13.8-5.8
		c-5.2,0-10.2,2.1-13.7,5.8c-3.7,3.8-5.7,8.7-5.7,13.9s2,10.1,5.7,13.9C77,61.4,82,63.5,87.2,63.5z M74.9,31.5
		c3.3-3.3,7.6-5.2,12.2-5.2c4.6,0,9,1.8,12.3,5.2c3.2,3.3,5,7.7,5,12.3c0,4.6-1.8,9-5,12.3c-3.3,3.3-7.6,5.2-12.3,5.2
		c-4.6,0-8.9-1.8-12.2-5.2c-3.3-3.3-5.1-7.7-5.1-12.3S71.7,34.9,74.9,31.5z"/>
	<path d="M57.5,71L57.5,71l3.1-4.9H58l-2.3,3.7c-2.9-1.7-6.2-2.5-9.6-2.5c-5.2,0-10.2,2.1-13.7,5.8c-3.7,3.8-5.7,8.7-5.7,13.9
		c0,5.2,2,10.1,5.7,13.9c0.6,0.7,1.4,1.4,2.3,2l-3.2,5.1H34l2.5-3.9c2.9,1.7,6.2,2.6,9.6,2.6c5.2,0,10.1-2.1,13.8-5.8
		c3.7-3.8,5.7-8.7,5.7-13.9c0-5.2-2-10.1-5.7-13.9C59.1,72.3,58.3,71.6,57.5,71z M35.8,100.9c-0.7-0.5-1.3-1.1-1.9-1.7
		c-3.3-3.3-5.1-7.7-5.1-12.3c0-4.6,1.8-9,5.1-12.3c3.3-3.3,7.6-5.2,12.2-5.2c2.9,0,5.8,0.8,8.4,2.2L35.8,100.9z M58.3,99.2
		c-3.3,3.3-7.6,5.2-12.3,5.2c-3,0-5.9-0.8-8.4-2.2l18.7-29.2c0.7,0.5,1.4,1.2,2,1.7c3.2,3.3,5,7.7,5,12.3
		C63.3,91.5,61.6,95.9,58.3,99.2z"/>
	<path d="M51.3,47.4l14,19.2V24.5H36.2l-0.9-0.3l-0.1,0.3h-0.5l0.3,0.5L22.6,57.8L51.3,47.4z M63.1,26.7v33.2L52.6,45.5l-0.3-0.8
		l-0.2,0.1l-13.1-18H63.1z M36.5,27.1l13.4,18.5l-23.6,8.6L36.5,27.1z"/>
	<path d="M69.9,66.9V96L69.6,97l0.3,0.1v0.5l0.5-0.3l32.8,12.4L92.8,80.9l19.2-14H69.9z M99.5,105.9l-27-10.2l18.4-13.4L99.5,105.9z
		 M90.9,79.6L90.9,79.6l-0.8,0.3l0.1,0.2l-18,13.2V69.1h33.1L90.9,79.6z"/>
	<polygon points="149.2,20.1 168,60.1 170.9,60.1 189.8,20.1 189.8,60.1 192.4,60.1 192.4,13.9 189.8,13.9 169.5,57.3 149.2,13.9 
		146.6,13.9 146.6,60.1 149.2,60.1 	"/>
	<polygon points="238.7,57.5 209.5,57.5 209.5,38.3 236.7,38.3 236.7,35.7 209.5,35.7 209.5,16.5 238.7,16.5 238.7,13.9 206.9,13.9 
		206.9,60.1 238.7,60.1 	"/>
	<path d="M275.7,58.3c2.8-1.2,5.3-2.9,7.3-4.9c2.1-2.1,3.7-4.5,4.9-7.3c1.2-2.8,1.8-5.8,1.8-9c0-3.2-0.6-6.2-1.8-9
		c-1.2-2.8-2.9-5.3-4.9-7.4c-2.1-2.1-4.5-3.7-7.3-4.9c-2.8-1.2-5.8-1.8-9-1.8h-16.5v46.2h16.5C269.9,60.1,272.9,59.5,275.7,58.3z
		 M252.8,16.5h14c2.8,0,5.5,0.5,8,1.6c2.5,1.1,4.7,2.5,6.5,4.4c1.8,1.8,3.3,4,4.4,6.5c1.1,2.5,1.6,5.2,1.6,8c0,2.8-0.5,5.5-1.6,8
		c-1.1,2.5-2.5,4.7-4.4,6.5c-1.8,1.9-4,3.3-6.5,4.4c-2.5,1.1-5.1,1.6-8,1.6h-14V16.5z"/>
	<rect x="299.7" y="13.9" width="2.6" height="46.2"/>
	<path d="M345.6,45.9l6.2,14.2h2.9l-20-46.2h-3.4l-20,46.2h2.9l6.1-14.2H345.6z M333,16.7l11.6,26.7h-23.1L333,16.7z"/>
	<polygon points="170.2,111.2 150.5,69.3 146.2,69.3 146.2,117.5 150.9,117.5 150.9,81 168.1,117.5 172.2,117.5 189.5,81 
		189.5,117.5 194.1,117.5 194.1,69.3 189.8,69.3 	"/>
	<path d="M245.9,75.6L245.9,75.6c-2.3-2.3-4.9-4.1-8-5.4c-6.1-2.6-13.5-2.6-19.6,0c-3,1.3-5.7,3.1-8,5.4c-2.3,2.3-4.1,5-5.4,8
		c-1.3,3-2,6.3-2,9.8c0,3.5,0.7,6.8,2,9.8c1.3,3,3.1,5.7,5.4,8c2.3,2.3,5,4.1,8,5.4c3,1.3,6.3,2,9.8,2c3.4,0,6.7-0.7,9.8-2
		c3-1.3,5.7-3.1,8-5.4c2.3-2.3,4.1-5,5.4-8c1.3-3,2-6.3,2-9.8c0-3.5-0.7-6.8-2-9.8C250,80.6,248.2,77.9,245.9,75.6z M248.6,93.4
		c0,2.8-0.5,5.5-1.6,8c-1.1,2.5-2.5,4.7-4.4,6.5c-1.8,1.8-4,3.3-6.5,4.4c-4.9,2.1-11,2.1-15.9,0c-2.5-1.1-4.7-2.6-6.5-4.4
		c-1.8-1.9-3.3-4-4.4-6.5c-1.1-2.5-1.6-5.1-1.6-8c0-2.8,0.5-5.5,1.6-8c1.1-2.5,2.5-4.7,4.4-6.5c1.8-1.9,4-3.3,6.5-4.4
		c2.5-1.1,5.1-1.6,8-1.6c2.8,0,5.5,0.5,8,1.6c2.5,1.1,4.7,2.6,6.5,4.4c1.8,1.8,3.3,4,4.4,6.5C248.1,87.9,248.6,90.6,248.6,93.4
		L248.6,93.4z"/>
	<path d="M301.7,75.6L301.7,75.6c-2.3-2.3-4.9-4.1-8-5.4c-6.1-2.6-13.5-2.6-19.6,0c-3,1.3-5.7,3.1-8,5.4c-2.3,2.3-4.1,5-5.4,8
		c-1.3,3-2,6.3-2,9.8c0,3.5,0.7,6.8,2,9.8c1.3,3,3.1,5.7,5.4,8c2.3,2.3,5,4.1,8,5.4c3,1.3,6.3,2,9.8,2c3.5,0,6.7-0.7,9.8-2
		c3-1.3,5.7-3.1,8-5.4c2.3-2.3,4.1-5,5.4-8c1.3-3,2-6.3,2-9.8c0-3.5-0.7-6.8-2-9.8C305.8,80.6,304,77.9,301.7,75.6z M304.4,93.4
		c0,2.8-0.5,5.5-1.6,8c-1.1,2.5-2.5,4.7-4.4,6.5c-1.8,1.8-4,3.3-6.5,4.4c-4.9,2.1-11,2.1-15.9,0c-2.5-1.1-4.7-2.6-6.5-4.4
		c-1.8-1.9-3.3-4-4.4-6.5c-1.1-2.5-1.6-5.1-1.6-8c0-2.8,0.5-5.5,1.6-8c1.1-2.5,2.5-4.7,4.4-6.5c1.8-1.8,4-3.3,6.5-4.4
		c2.5-1.1,5.1-1.6,8-1.6c2.8,0,5.5,0.5,8,1.6c2.5,1.1,4.7,2.6,6.5,4.4c1.8,1.8,3.3,4,4.4,6.5C303.9,87.9,304.4,90.6,304.4,93.4
		L304.4,93.4z"/>
	<path d="M325.1,70L325.1,70c-1.6,0.7-3,1.7-4.2,2.9c-1.2,1.2-2.1,2.6-2.8,4.2c-0.7,1.6-1.1,3.3-1.1,5.2c0,2.3,0.6,4.5,1.7,6.4
		c0.8,1.4,1.8,2.6,2.9,3.5c-1.9,1-3.4,2.3-4.7,4.1c-1.7,2.3-2.5,4.9-2.5,7.8c0,1.8,0.4,3.6,1.1,5.2c0.7,1.6,1.6,3,2.8,4.2
		c1.2,1.2,2.6,2.1,4.2,2.8c1.6,0.7,3.3,1,5.1,1h26.5V68.9h-23.9C328.5,68.9,326.7,69.3,325.1,70z M349.5,112.5h-21.9
		c-1.2,0-2.3-0.2-3.4-0.7c-1-0.4-2-1.1-2.7-1.8c-0.8-0.8-1.4-1.7-1.8-2.7c-0.4-1-0.7-2.1-0.7-3.3c0-1.2,0.2-2.3,0.7-3.4
		c0.4-1,1.1-2,1.8-2.7c0.8-0.8,1.7-1.4,2.7-1.8c1-0.4,2.2-0.7,3.4-0.7h21.9V112.5z M349.5,73.6v17.2h-19.2c-1.2,0-2.3-0.2-3.4-0.7
		c-1-0.4-2-1.1-2.7-1.8h0c-0.8-0.8-1.4-1.7-1.8-2.7c-0.4-1-0.7-2.1-0.7-3.3c0-1.2,0.2-2.3,0.7-3.4c0.4-1,1.1-2,1.8-2.7
		c0.8-0.8,1.7-1.4,2.7-1.8c1-0.4,2.2-0.7,3.4-0.7H349.5z"/>
</g>
</svg>
